<?xml version="1.0" standalone="no"?>
<!DOCTYPE svg PUBLIC "-//W3C//DTD SVG 20010904//EN"
 "http://www.w3.org/TR/2001/REC-SVG-20010904/DTD/svg10.dtd">
<svg version="1.0" xmlns="http://www.w3.org/2000/svg"
 width="200.000000pt" height="200.000000pt" viewBox="0 0 200.000000 200.000000"
 preserveAspectRatio="xMidYMid meet">
<metadata>
Created by potrace 1.11, written by Peter Selinger 2001-2013
</metadata>
<g transform="translate(0.000000,200.000000) scale(0.100000,-0.100000)"
fill="#000000" stroke="none">
<path d="M134 1982 c-44 -14 -95 -58 -114 -99 -19 -42 -20 -63 -20 -733 0
-746 -1 -730 53 -788 54 -58 47 -57 497 -59 l415 -1 3 -125 3 -125 -162 0
c-162 -1 -194 -8 -182 -38 8 -21 738 -21 746 0 12 30 -20 37 -180 37 l-159 0
-2 124 c-2 113 0 125 15 125 10 1 194 1 408 2 416 0 430 2 484 51 13 12 32 40
42 62 17 38 19 80 19 725 0 434 -4 698 -10 720 -12 39 -41 75 -85 105 -29 20
-48 20 -890 22 -473 0 -869 -2 -881 -5z m1715 -74 c22 -11 51 -36 63 -56 l23
-37 1 -567 c1 -417 -1 -568 -10 -569 -14 -1 -1837 -1 -1852 0 -9 1 -12 148
-10 569 1 549 2 568 21 601 11 19 39 45 63 57 l42 22 809 0 c791 0 810 0 850
-20z m83 -1297 c4 0 5 -32 4 -70 -4 -96 -41 -150 -116 -168 -55 -14 -1630 -9
-1660 5 -34 15 -53 32 -74 64 -18 27 -31 117 -22 153 5 20 12 20 933 19 510
-1 931 -2 935 -3z"/>
<path d="M412 1484 c-15 -11 -17 -37 -18 -218 l0 -206 53 0 53 0 0 178 0 178
175 0 c145 -1 177 -4 185 -16 9 -15 5 -64 -7 -83 -15 -24 -73 -34 -191 -33
l-122 1 0 -41 c0 -41 0 -41 38 -41 29 0 60 -15 146 -72 l110 -71 80 0 c47 0
76 4 70 9 -5 5 -51 36 -102 70 -88 57 -92 61 -65 66 105 22 153 75 153 168 0
51 -4 62 -29 88 -16 16 -40 30 -53 30 -13 1 -121 2 -241 3 -160 2 -223 -1
-235 -10z"/>
<path d="M1175 1492 c-92 -15 -106 -42 -109 -205 -4 -219 -1 -221 307 -225
l217 -3 0 40 c0 32 -4 41 -17 42 -10 0 -94 1 -188 1 -93 0 -179 4 -192 9 -22
8 -23 13 -23 128 0 85 4 122 13 128 6 4 100 8 207 9 l195 0 3 40 3 40 -198 0
c-109 0 -207 -2 -218 -4z"/>
<path d="M957 532 c-36 -40 -9 -102 45 -102 51 0 78 69 40 103 -24 22 -65 21
-85 -1z"/>
</g>
</svg>
